<svg xmlns="http://www.w3.org/2000/svg" width="22" height="22" viewBox="0 0 22 22">
  <g id="그룹_258" data-name="그룹 258" transform="translate(-603 -219)">
    <rect id="사각형_74" data-name="사각형 74" width="22" height="22" rx="11" transform="translate(603 219)" fill="rgba(255,255,255,0)"/>
    <g id="그룹_242" data-name="그룹 242" transform="translate(-2755.05 -12.277)">
      <path id="패스_83" data-name="패스 83" d="M3374.631,246.2l.643.644a1.36,1.36,0,1,1-1.924,1.924l-2.891-2.891a1.361,1.361,0,0,1,0-1.924l0,0a.341.341,0,0,0,0-.481l-.7-.7a2.661,2.661,0,0,0-.267.225,2.722,2.722,0,0,0,0,3.848l2.891,2.89a2.721,2.721,0,0,0,3.848-3.848l-1.212-1.213A4.083,4.083,0,0,1,3374.631,246.2Z" transform="translate(-1.807 -2.076)" fill="#080406"/>
      <path id="패스_84" data-name="패스 84" d="M3365.933,241.085l-1.124-1.124a1.361,1.361,0,1,1,1.924-1.925l3.372,3.372a1.362,1.362,0,0,1,0,1.925l0,0a.341.341,0,0,0,0,.481l.7.7a2.67,2.67,0,0,0,.266-4.073l-3.371-3.371a2.721,2.721,0,0,0-3.848,3.848l1.693,1.694A4.083,4.083,0,0,1,3365.933,241.085Z" transform="translate(0)" fill="#080406"/>
    </g>
  </g>
</svg>
